# xmcd
#
# Track frame offsets:
# 150
# 12052
# 25657
# 37545
# 55620
# 67407
# 80770
# 93885
# 107820
# 120607
# 133617
# 145815
# 155750
# 167262
#
# Disc length: 2351 seconds
#
#
# Revision: 0
# Processed by: cddbd v1.5.1PL2 Copyright (c) Steve Scherf et al.
# Submitted via: FreeRIP 2.944 
#
DISCID=aa092d0e
DTITLE=Caçula e Marinheiro - Sertanejo Bis
DYEAR=1900
DGENRE=Sertanejo
TTITLE0=Casinha pequenina
TTITLE1=Piracicaba
TTITLE2=Galopeira (Galopera)
TTITLE3=Igrejinha da serra
TTITLE4=Coração solitário
TTITLE5=Cantinho do coração
TTITLE6=Cantinho de amor
TTITLE7=O abajur
TTITLE8=Não chores assim
TTITLE9=Alma Aventureira
TTITLE10=Mais um dia se foi
TTITLE11=Sofrendo por amor
TTITLE12=Bar da boemia
TTITLE13=Não posso esquecer-te
EXTD=
EXTT0=
EXTT1=
EXTT2=
EXTT3=
EXTT4=
EXTT5=
EXTT6=
EXTT7=
EXTT8=
EXTT9=
EXTT10=
EXTT11=
EXTT12=
EXTT13=
PLAYORDER=
